<?xml version="1.0" standalone="no"?>
<!DOCTYPE svg PUBLIC "-//W3C//DTD SVG 20010904//EN"
 "http://www.w3.org/TR/2001/REC-SVG-20010904/DTD/svg10.dtd">
<svg version="1.0" xmlns="http://www.w3.org/2000/svg"
 width="700.000000pt" height="700.000000pt" viewBox="0 0 700.000000 700.000000"
 preserveAspectRatio="xMidYMid meet">
<metadata>
Created by potrace 1.11, written by Peter Selinger 2001-2013
</metadata>
<g transform="translate(0.000000,700.000000) scale(0.100000,-0.100000)"
fill="#000000" stroke="none">
<path d="M623 6986 c-66 -21 -127 -61 -172 -112 -23 -26 -41 -50 -41 -54 0 -4
-24 -8 -53 -8 -144 -1 -267 -83 -329 -218 -19 -40 -23 -66 -23 -144 0 -83 3
-102 27 -150 60 -122 175 -200 307 -208 75 -5 76 -5 106 -45 156 -209 489
-169 608 72 29 59 32 74 32 151 -1 66 -6 96 -23 135 l-23 51 20 44 c77 175 -7
384 -187 468 -68 32 -182 40 -249 18z"/>
<path d="M2843 6972 c-63 -23 -125 -64 -163 -110 l-28 -34 -66 22 c-217 74
-453 -82 -473 -311 -7 -75 18 -174 58 -229 16 -22 29 -42 29 -44 0 -2 -19 -6
-42 -10 -61 -10 -155 -64 -195 -112 l-35 -41 -51 20 c-74 29 -183 28 -262 -3
-72 -28 -159 -110 -195 -185 -20 -42 -24 -65 -25 -145 0 -52 4 -105 8 -117 7
-19 1 -24 -45 -45 -121 -56 -202 -170 -210 -296 -3 -49 -4 -51 -28 -44 -14 4
-61 7 -105 7 -68 -1 -89 -5 -139 -30 -80 -40 -141 -102 -179 -183 -28 -58 -32
-77 -32 -147 1 -66 6 -91 29 -141 15 -34 43 -77 62 -95 l34 -33 -24 -25 c-82
-87 -140 -239 -140 -371 0 -79 35 -222 529 -2177 l530 -2093 368 0 367 0 -5
22 c-3 13 -55 349 -115 748 -61 399 -113 740 -116 758 l-6 32 436 0 c240 0
436 -3 436 -7 0 -5 18 -343 40 -753 22 -410 40 -757 40 -772 l0 -28 368 0 368
0 37 763 c21 419 38 770 37 780 0 16 27 17 435 17 341 0 435 -3 435 -12 0 -13
-214 -1451 -225 -1515 l-6 -33 368 0 368 0 519 2087 c319 1283 521 2112 523
2152 9 124 -37 269 -117 370 l-39 49 34 32 c70 67 112 188 101 284 -9 71 -55
165 -105 215 -22 22 -69 55 -103 73 -55 28 -73 32 -143 33 -44 0 -92 -3 -107
-8 -28 -7 -28 -7 -28 42 0 114 -86 243 -197 297 -62 31 -182 44 -244 26 l-36
-10 -6 60 c-13 148 -141 291 -280 314 -76 13 -74 11 -82 61 -15 110 -98 224
-198 272 -26 12 -76 28 -112 34 -63 11 -64 12 -57 36 4 15 7 58 6 96 0 89 -33
164 -104 239 -73 77 -150 111 -255 111 -93 0 -153 -19 -221 -71 l-44 -34 -21
41 c-53 105 -170 179 -294 187 -169 11 -309 -81 -367 -241 l-22 -59 -11 38
c-46 154 -176 255 -335 261 -54 3 -90 -2 -127 -15z m-364 -2167 c187 -44 348
-202 405 -395 12 -41 25 -220 51 -705 19 -357 35 -658 35 -668 0 -16 -29 -17
-507 -15 l-508 3 -93 600 c-76 494 -92 613 -88 676 6 82 36 178 80 254 64 109
206 214 337 249 71 19 208 19 288 1z m2306 0 c245 -62 425 -288 425 -532 0
-50 -156 -1146 -175 -1230 l-5 -23 -505 0 -505 0 0 48 c0 39 27 590 56 1137 8
153 25 230 72 319 70 135 202 240 353 280 71 19 210 20 284 1z"/>
<path d="M6565 6754 c-87 -22 -176 -80 -220 -144 -27 -39 -29 -40 -86 -40
-128 0 -258 -88 -315 -212 -24 -54 -28 -76 -28 -148 0 -110 32 -186 110 -260
71 -67 129 -92 226 -98 77 -4 77 -5 103 -44 33 -49 129 -112 196 -128 75 -18
177 -8 242 24 70 34 139 103 174 175 25 49 28 67 28 151 0 75 -4 104 -21 140
l-20 45 20 45 c16 35 21 65 21 135 0 78 -4 98 -28 151 -57 123 -178 205 -311
210 -39 2 -80 1 -91 -2z"/>
</g>
</svg>
